<?xml version="1.0" standalone="no"?>
<!DOCTYPE svg PUBLIC "-//W3C//DTD SVG 20010904//EN"
 "http://www.w3.org/TR/2001/REC-SVG-20010904/DTD/svg10.dtd">
<svg version="1.0" xmlns="http://www.w3.org/2000/svg"
 width="735.000000pt" height="735.000000pt" viewBox="0 0 735.000000 735.000000"
 preserveAspectRatio="xMidYMid meet">
<metadata>
Created by potrace 1.11, written by Peter Selinger 2001-2013
</metadata>
<g transform="translate(0.000000,735.000000) scale(0.100000,-0.100000)"
fill="#000000" stroke="none">
<path d="M3572 6959 c-112 -22 -236 -113 -293 -217 -51 -91 -62 -201 -30 -317
36 -129 39 -174 26 -390 -4 -71 -7 -160 -6 -196 1 -36 -3 -79 -9 -95 -16 -42
-58 -82 -99 -95 -20 -6 -49 -17 -66 -24 -36 -15 -166 -64 -250 -95 -58 -21
-96 -50 -104 -80 -8 -33 -7 -66 3 -90 18 -43 24 -43 131 -18 62 15 57 14 75
20 8 3 58 21 110 38 52 18 97 37 98 42 2 4 10 8 18 8 12 0 102 45 188 94 41
23 66 50 77 83 6 18 12 107 13 196 1 89 5 167 8 172 13 21 23 132 22 240 0
101 -3 117 -33 190 -37 91 -42 153 -17 207 41 87 148 153 246 152 60 -1 139
-35 181 -80 66 -71 83 -190 39 -289 -28 -64 -46 -124 -45 -150 1 -19 18 -154
20 -165 1 -3 4 -32 8 -65 9 -73 13 -124 31 -347 6 -69 23 -112 54 -134 15 -11
95 -48 177 -83 83 -35 170 -72 194 -83 24 -11 51 -21 60 -23 9 -2 38 -13 64
-24 50 -22 93 -26 114 -13 24 15 43 78 33 111 -13 46 -30 59 -137 97 -229 82
-353 141 -371 176 -6 12 -14 61 -17 108 -5 102 -14 196 -20 230 -9 46 -6 184
4 230 6 25 19 74 29 110 38 132 14 287 -59 382 -16 20 -29 40 -29 45 -1 14
-93 82 -146 108 -85 42 -191 54 -292 34z"/>
<path d="M3620 6643 c-25 -10 -60 -56 -61 -80 -3 -44 -2 -48 5 -76 17 -59 109
-87 175 -52 31 16 63 80 56 114 -5 25 -24 61 -43 80 -15 15 -106 25 -132 14z"/>
<path d="M3604 6305 l-24 -24 0 -321 c0 -307 1 -321 20 -340 20 -20 26 -22 65
-23 48 -1 66 4 84 22 19 19 20 36 20 339 1 372 3 362 -88 368 -45 2 -57 -1
-77 -21z"/>
<path d="M3604 5325 c-18 -18 -24 -35 -24 -67 -1 -24 -1 -949 -1 -2056 0
-2225 -5 -2061 64 -2170 l33 -53 26 39 c14 21 34 61 45 88 17 47 18 133 20
2119 2 1985 1 2071 -16 2094 -15 19 -29 25 -70 27 -45 3 -56 0 -77 -21z"/>
<path d="M3285 5308 c-27 -11 -61 -25 -75 -31 -14 -6 -27 -11 -30 -12 -3 -1
-12 -5 -20 -8 -104 -43 -419 -134 -520 -151 -19 -3 -45 -8 -56 -10 -61 -13
-123 -22 -214 -31 -36 -4 -78 -9 -95 -12 -16 -2 -136 -6 -265 -8 -129 -1 -246
-8 -260 -13 -40 -16 -68 -49 -81 -94 -10 -37 -6 -260 6 -373 2 -16 6 -61 10
-100 4 -38 9 -83 11 -100 3 -16 7 -50 10 -75 3 -25 7 -56 10 -70 3 -14 8 -41
10 -60 7 -56 52 -266 79 -370 14 -52 27 -104 30 -115 3 -11 25 -82 50 -159
103 -313 230 -584 418 -891 7 -11 39 -59 72 -108 33 -48 65 -96 70 -105 6 -9
12 -19 15 -22 3 -3 37 -45 75 -95 113 -147 206 -249 405 -446 103 -102 204
-210 224 -240 51 -78 82 -178 78 -259 -9 -205 -7 -298 4 -332 7 -21 11 -38 9
-38 -8 0 36 -115 71 -183 32 -63 129 -212 158 -243 6 -6 37 -43 69 -82 62 -75
100 -98 144 -87 58 14 228 226 318 398 91 172 126 360 99 532 -26 169 18 269
187 425 150 137 329 325 421 440 33 41 73 91 89 110 44 54 127 167 140 192 7
13 18 28 25 35 7 7 29 41 50 75 21 35 42 65 46 66 4 2 8 7 8 12 0 5 20 42 45
84 55 94 155 290 155 305 0 6 5 11 10 11 6 0 10 6 10 13 0 7 9 31 19 53 42 86
112 269 151 396 23 73 45 144 50 158 5 14 12 39 16 55 4 17 8 35 10 40 1 6 10
42 18 80 9 39 19 79 21 90 16 68 52 273 60 344 4 30 8 61 10 70 1 9 6 52 10
96 4 44 9 96 11 115 1 19 6 105 10 191 6 142 5 159 -13 200 -28 62 -54 68
-283 68 -102 0 -210 2 -240 5 -30 3 -82 8 -115 11 -33 3 -71 8 -85 10 -14 3
-43 7 -65 10 -22 2 -51 7 -65 10 -14 3 -52 10 -85 15 -59 11 -316 75 -345 87
-8 3 -20 7 -27 9 -7 1 -85 30 -174 63 -89 34 -176 61 -195 61 -47 0 -73 -36
-71 -101 1 -27 0 -49 -3 -49 -5 0 -3 -544 3 -630 1 -25 -1 -57 -4 -72 -4 -16
-5 -28 -1 -28 5 0 6 -669 2 -1015 0 -5 1 -518 3 -1140 l2 -1130 -22 -80 c-25
-90 -63 -170 -143 -298 -78 -124 -88 -124 -170 -2 -88 131 -139 238 -156 327
-3 18 -6 965 -6 2103 0 1417 -3 2076 -11 2090 -21 41 -55 45 -132 13z m-61
-296 c36 -70 17 -134 -50 -164 -26 -11 -52 -21 -58 -22 -6 -1 -16 -4 -21 -8
-6 -3 -28 -10 -50 -14 -51 -10 -55 -11 -57 -14 -4 -2 -25 -7 -63 -15 -16 -3
-57 -12 -90 -19 -87 -20 -208 -40 -312 -51 -28 -3 -66 -8 -85 -10 -18 -3 -62
-7 -98 -10 -200 -15 -231 -21 -259 -52 -23 -26 -23 -31 -17 -128 7 -102 9
-122 21 -210 9 -68 34 -217 40 -235 2 -8 6 -26 9 -40 2 -14 9 -45 15 -70 7
-25 13 -52 15 -60 2 -8 10 -35 17 -60 7 -25 14 -52 15 -62 7 -34 78 -237 124
-354 92 -230 235 -501 368 -694 106 -155 135 -195 141 -200 4 -3 22 -25 41
-50 19 -25 37 -47 40 -50 3 -3 32 -36 65 -75 33 -38 94 -105 135 -148 114
-119 125 -141 123 -255 -1 -52 -5 -98 -10 -103 -7 -7 -281 261 -369 361 -96
111 -140 164 -148 179 -5 9 -13 18 -17 21 -24 17 -209 289 -294 435 -54 92
-204 386 -210 410 -1 5 -7 21 -12 35 -6 14 -23 54 -38 90 -28 68 -112 316
-119 353 -3 12 -11 43 -19 70 -8 26 -13 47 -11 47 3 0 0 8 -5 18 -5 9 -11 31
-14 47 -3 17 -8 39 -11 50 -13 50 -45 225 -51 275 -3 30 -8 62 -10 70 -2 8 -7
47 -10 85 -9 93 -11 108 -21 190 -4 39 -8 104 -9 147 0 118 13 125 260 133
144 5 227 10 305 21 51 7 73 10 145 19 39 5 224 40 365 70 40 9 177 47 195 55
62 27 82 25 99 -8z m1158 -35 c310 -81 604 -121 958 -132 47 -2 92 -3 101 -4
8 -1 26 -11 38 -22 23 -21 23 -26 16 -123 -4 -56 -9 -114 -10 -131 -2 -16 -6
-59 -9 -95 -3 -36 -8 -81 -11 -100 -6 -38 -13 -86 -20 -140 -2 -19 -7 -46 -10
-60 -3 -14 -10 -52 -16 -85 -5 -33 -28 -132 -50 -220 -22 -88 -42 -167 -44
-175 -11 -44 -99 -290 -139 -389 -46 -112 -153 -333 -195 -401 -11 -19 -24
-42 -28 -50 -9 -19 -95 -162 -105 -175 -5 -5 -31 -44 -58 -85 -58 -88 -189
-258 -275 -356 -86 -100 -379 -394 -391 -394 -13 0 -14 6 -19 95 -6 105 23
159 164 309 31 32 67 71 81 85 36 38 167 203 232 291 216 296 397 648 517
1008 22 68 43 134 45 145 3 12 10 38 16 57 6 19 13 46 16 60 3 14 12 52 21 85
8 33 17 74 19 90 3 17 7 41 11 55 9 36 11 50 17 95 2 22 5 40 6 40 1 0 4 16 5
35 2 19 6 49 9 65 10 56 19 223 12 248 -3 13 -18 32 -32 42 -27 17 -45 20
-199 30 -49 3 -106 8 -125 11 -19 3 -48 7 -65 9 -76 7 -148 18 -245 37 -58 11
-114 22 -125 24 -11 2 -74 17 -140 34 -66 17 -130 33 -142 36 -82 16 -108 49
-101 130 8 90 5 89 270 21z m-1146 -408 c6 -63 -11 -90 -72 -115 -33 -14 -158
-41 -224 -48 -14 -2 -34 -6 -45 -9 -11 -4 -38 -9 -60 -12 -89 -11 -255 -45
-288 -59 -82 -34 -90 -109 -32 -317 84 -304 148 -475 270 -719 100 -201 184
-336 319 -515 69 -90 97 -138 123 -205 12 -31 9 -170 -4 -194 -8 -15 -15 -11
-54 31 -24 26 -64 72 -89 102 -25 29 -50 59 -55 65 -6 6 -31 38 -55 71 -25 33
-47 62 -50 65 -6 5 -135 198 -157 235 -99 162 -266 499 -287 580 -2 6 -8 24
-15 40 -24 59 -64 182 -101 315 -21 74 -54 188 -74 254 -48 158 -49 237 -6
309 39 63 89 78 270 83 147 3 140 3 252 34 43 11 85 23 95 25 145 29 225 47
258 59 36 13 42 13 58 -3 11 -11 20 -38 23 -72z m1014 58 c20 -9 57 -18 84
-21 26 -3 51 -8 55 -11 5 -2 26 -7 48 -9 22 -3 77 -14 124 -25 118 -27 201
-39 299 -46 198 -13 238 -44 227 -180 -3 -38 -9 -81 -12 -95 -3 -14 -8 -38
-11 -55 -2 -16 -18 -84 -34 -150 -17 -66 -32 -129 -35 -140 -14 -59 -89 -285
-129 -388 -51 -132 -156 -351 -219 -460 -23 -40 -48 -84 -56 -99 -8 -16 -18
-28 -23 -28 -4 0 -8 -5 -8 -10 0 -6 -30 -53 -67 -106 -38 -53 -75 -106 -83
-118 -89 -130 -263 -322 -282 -310 -4 3 -6 9 -3 14 3 5 1 11 -4 14 -5 3 -8 40
-6 82 4 103 48 189 188 364 68 86 207 323 288 490 38 80 74 153 79 162 6 10
10 23 10 30 0 7 7 26 15 42 32 61 140 413 159 516 2 14 7 36 10 50 3 14 8 36
10 50 2 14 5 30 7 35 7 23 -14 77 -35 90 -19 13 -164 45 -271 61 -16 2 -41 6
-55 9 -14 3 -38 8 -55 10 -264 46 -288 52 -323 85 -18 16 -33 36 -33 44 -3 35
-3 42 5 73 15 62 46 69 136 30z m-33 -378 c15 -6 35 -12 43 -14 15 -3 99 -23
133 -31 9 -2 27 -6 38 -9 122 -26 184 -56 205 -96 21 -41 14 -82 -41 -247 -82
-243 -171 -438 -286 -635 -55 -93 -173 -272 -195 -296 -10 -11 -3 1302 7 1320
11 22 52 25 96 8z m-1054 -11 c69 -36 71 -50 73 -688 2 -539 -1 -590 -26 -590
-9 0 -141 196 -190 281 -68 119 -216 448 -235 524 -1 6 -5 17 -8 25 -14 32
-89 294 -92 316 -4 40 14 49 154 80 14 3 28 7 33 10 4 3 16 7 25 9 10 3 52 14
93 24 87 23 143 26 173 9z"/>
</g>
</svg>
