<svg id="Ebene_1" data-name="Ebene 1" xmlns="http://www.w3.org/2000/svg" viewBox="0 0 106.7 174.58"><defs><style>.cls-1{fill:#e1b405;}.cls-2{fill:none;}</style></defs><title>logo</title><path class="cls-1" d="M276.17,485.26a11,11,0,0,1-2.59-7.82q.07-51.43,0-102.88c0-.34,0-.67,0-1,.11-1.72-.54-3.83,2.43-3.88s2.54,2,2.55,3.75q0,13,0,26,0,38.7,0,77.41C278.66,479.91,278.26,482.75,276.17,485.26Z" transform="translate(-222.75 -326.72)"/><path class="cls-1" d="M275.86,326.72a11.9,11.9,0,0,1,11.24,16c-1.92,5.49,0,10.82-.06,16.22,0,1.55,1.37,2.2,2.59,2.73a64.24,64.24,0,0,0,7.86,3.12c2.48.69,4.29,1.85,3.2,4.42-1,2.35-3.24.68-4.66.19-3.76-1.3-7.36-3.06-11.06-4.55-1.81-.72-2.31-2-2.44-3.83-.35-5-.81-9.95-1.56-14.87-.35-2.26,1-3.77,1.5-5.63.82-3,.27-5.66-2.32-7.59a6.57,6.57,0,0,0-7.92-.12c-2.78,1.75-3.78,4.78-2.46,7.41,2.66,5.26.76,10.45.37,15.57-.21,2.75,1.07,6.64-1.82,8.33a47.82,47.82,0,0,1-15.2,6.09c-1.45.27-1.68-.54-1.81-1.64a2.93,2.93,0,0,1,2.14-3.44c3-1.07,5.88-2.25,8.85-3.3a4.21,4.21,0,0,0,3.1-4.55c-.29-5.38,1.34-10.61-.54-16.2C262.43,333.86,268.36,326.82,275.86,326.72Z" transform="translate(-222.75 -326.72)"/><path class="cls-1" d="M278.58,353.43c0,2.48,0,4.95,0,7.43,0,1.73-.93,2.25-2.5,2.25s-2.48-.57-2.47-2.28q0-7.43,0-14.86c0-1.74.93-2.24,2.49-2.24s2.49.56,2.47,2.27C278.56,348.48,278.58,351,278.58,353.43Z" transform="translate(-222.75 -326.72)"/><path class="cls-1" d="M279.34,337.88c-.15,2.25-1.3,3.31-3.14,3.42a2.89,2.89,0,0,1-3.2-3,2.94,2.94,0,0,1,3.05-3.16C278,335,278.85,336.48,279.34,337.88Z" transform="translate(-222.75 -326.72)"/><path class="cls-2" d="M236.52,387.64c8.62-.67,17.18-1.73,25.5-4.32,2.28-.71,3-1.95,2.49-4-.58-2.56-2.31-1.15-3.55-.8a111,111,0,0,1-29.52,4.25c-3.31,0-4,1.46-3.64,4.25.65,5.28,1,10.62,2,15.83,4.55,23.66,15.93,43.47,34.44,60.1.61-6.06.6-6.05-3.09-9.92a99.48,99.48,0,0,1-27.78-61.47C233.07,388.66,233.68,387.85,236.52,387.64Z" transform="translate(-222.75 -326.72)"/><path class="cls-2" d="M233.33,391.56c-.26-2.9.35-3.71,3.19-3.92,8.62-.67,17.18-1.73,25.5-4.32,2.28-.71,3-1.95,2.49-4-.58-2.56-2.31-1.15-3.55-.8a111,111,0,0,1-29.52,4.25c-3.31,0-4,1.46-3.64,4.25.65,5.28,1,10.62,2,15.83,4.55,23.66,15.93,43.47,34.44,60.1.61-6.06.6-6.05-3.09-9.92A99.48,99.48,0,0,1,233.33,391.56Z" transform="translate(-222.75 -326.72)"/><path class="cls-2" d="M321.72,382.86a111,111,0,0,1-31.45-4.72c-2.6-.81-2.69.85-2.64,2.71.07,2.42,2.18,2.32,3.59,2.75a107.2,107.2,0,0,0,24.06,4c2.85.2,3.91.64,3.61,4a99,99,0,0,1-27.54,61c-2.63,2.77-4.87,5.39-3.12,10.11a122.85,122.85,0,0,0,14.31-15.3c13.62-17.71,20.42-37.88,21.81-60C324.47,385.56,325.43,382.91,321.72,382.86Z" transform="translate(-222.75 -326.72)"/><path class="cls-2" d="M233.33,391.56c-.26-2.9.35-3.71,3.19-3.92,8.62-.67,17.18-1.73,25.5-4.32,2.28-.71,3-1.95,2.49-4-.58-2.56-2.31-1.15-3.55-.8a111,111,0,0,1-29.52,4.25c-3.31,0-4,1.46-3.64,4.25.65,5.28,1,10.62,2,15.83,4.55,23.66,15.93,43.47,34.44,60.1.61-6.06.6-6.05-3.09-9.92A99.48,99.48,0,0,1,233.33,391.56Z" transform="translate(-222.75 -326.72)"/><path class="cls-2" d="M249.34,396l12.23-2.22c2.33-.44,3.56-1.76,2.94-4.21-.75-2.92-2.62-.91-3.92-.69a72.26,72.26,0,0,0-9.22,2.06c-4.17,1.3-10.15-1-12.36,2.82-2.07,3.62.65,8.69,1.74,13A94.27,94.27,0,0,0,264,449c1.5-4.57,0-7.51-2.29-10.39-8.52-10.72-13.73-23-17-36.22C243.53,397.66,245.21,396.44,249.34,396Z" transform="translate(-222.75 -326.72)"/><path class="cls-2" d="M321.72,382.86a111,111,0,0,1-31.45-4.72c-2.6-.81-2.69.85-2.64,2.71.07,2.42,2.18,2.32,3.59,2.75a107.2,107.2,0,0,0,24.06,4c2.85.2,3.91.64,3.61,4a99,99,0,0,1-27.54,61c-2.63,2.77-4.87,5.39-3.12,10.11a122.85,122.85,0,0,0,14.31-15.3c13.62-17.71,20.42-37.88,21.81-60C324.47,385.56,325.43,382.91,321.72,382.86Z" transform="translate(-222.75 -326.72)"/><path class="cls-2" d="M233.33,391.56c-.26-2.9.35-3.71,3.19-3.92,8.62-.67,17.18-1.73,25.5-4.32,2.28-.71,3-1.95,2.49-4-.58-2.56-2.31-1.15-3.55-.8a111,111,0,0,1-29.52,4.25c-3.31,0-4,1.46-3.64,4.25.65,5.28,1,10.62,2,15.83,4.55,23.66,15.93,43.47,34.44,60.1.61-6.06.6-6.05-3.09-9.92A99.48,99.48,0,0,1,233.33,391.56Z" transform="translate(-222.75 -326.72)"/><path class="cls-2" d="M291.4,393.92c4.57.82,9.14,1.66,13.71,2.45,2.22.39,3.3,1,2.73,3.84a89.12,89.12,0,0,1-17.16,38.25c-2.25,2.9-3.87,5.76-2.59,10.22,3.62-2.83,5.89-6.29,8.31-9.59,9-12.29,14.29-26.12,17-41,.78-4.25,0-6.22-5.05-6.36-5.4-.15-10.75-1.88-16.15-2.7-1.45-.22-3.52-2.49-4.5.37C286.71,392.4,288.85,393.46,291.4,393.92Z" transform="translate(-222.75 -326.72)"/><path class="cls-2" d="M260.59,388.84a72.26,72.26,0,0,0-9.22,2.06c-4.17,1.3-10.15-1-12.36,2.82-2.07,3.62.65,8.69,1.74,13A94.27,94.27,0,0,0,264,449c1.5-4.57,0-7.51-2.29-10.39-8.52-10.72-13.73-23-17-36.22-1.16-4.7.52-5.92,4.65-6.4l12.23-2.22c2.33-.44,3.56-1.76,2.94-4.21C263.76,386.61,261.89,388.62,260.59,388.84Z" transform="translate(-222.75 -326.72)"/><path class="cls-2" d="M321.72,382.86a111,111,0,0,1-31.45-4.72c-2.6-.81-2.69.85-2.64,2.71.07,2.42,2.18,2.32,3.59,2.75a107.2,107.2,0,0,0,24.06,4c2.85.2,3.91.64,3.61,4a99,99,0,0,1-27.54,61c-2.63,2.77-4.87,5.39-3.12,10.11a122.85,122.85,0,0,0,14.31-15.3c13.62-17.71,20.42-37.88,21.81-60C324.47,385.56,325.43,382.91,321.72,382.86Z" transform="translate(-222.75 -326.72)"/><path class="cls-1" d="M324.74,377.86a87.8,87.8,0,0,1-37.05-6.58c-4.5-1.89-5.09-.8-5.08,3.57.14,34.64,0,69.28.18,103.93,0,5.54-2.78,9.37-5.37,13.56-.83,1.35-1.74,1.32-2.59,0-2.59-4-5.46-7.73-5.39-13.05.22-17.32.08-34.64.09-52,0-17.82-.06-35.64.05-53.46,0-3.3-.36-4.52-4-3a85,85,0,0,1-37,6.9c-5.12-.22-6,1.76-5.8,6.33,1.27,31.94,12.83,59.25,36.57,80.88,4.21,3.83,5.94,7.59,5.25,12.87-1.19,9,3.59,15.51,9,21.82,1.84,2.15,3.22,2.16,5.11,0,6-6.84,10.45-14.2,8.94-23.84-.64-4.11.95-6.91,4.17-9.8,24.74-22.23,36.8-50.29,37.66-83.41C329.54,378.89,328.49,377.75,324.74,377.86ZM264.2,463c-18.51-16.63-29.89-36.44-34.44-60.1-1-5.21-1.31-10.55-2-15.83-.35-2.79.33-4.22,3.64-4.25A111,111,0,0,0,261,378.52c1.24-.35,3-1.76,3.55.8.47,2.05-.21,3.29-2.49,4-8.32,2.59-16.88,3.65-25.5,4.32-2.84.21-3.45,1-3.19,3.92A99.48,99.48,0,0,0,261.11,453C264.8,456.9,264.81,456.89,264.2,463Zm-2.63-69.21L249.34,396c-4.13.48-5.81,1.7-4.65,6.4,3.27,13.25,8.48,25.5,17,36.22,2.29,2.88,3.79,5.82,2.29,10.39a94.27,94.27,0,0,1-23.23-42.25c-1.09-4.31-3.81-9.38-1.74-13,2.21-3.87,8.19-1.52,12.36-2.82a72.26,72.26,0,0,1,9.22-2.06c1.3-.22,3.17-2.23,3.92.69C265.13,392,263.9,393.3,261.57,393.74Zm3,16.33c0,7.33,0,14.65,0,22,0,.25-.29.5-.67,1.11-7-9.07-11.06-19.26-13.92-30-.3-1.12-.11-2,1.21-2.18a8.17,8.17,0,0,0,1-.16C264.56,397.13,264.57,397.13,264.59,410.07Zm23.15-20.7c1-2.86,3.05-.59,4.5-.37,5.4.82,10.75,2.55,16.15,2.7,5.07.14,5.83,2.11,5.05,6.36-2.75,14.91-8,28.74-17,41-2.42,3.3-4.69,6.76-8.31,9.59-1.28-4.46.34-7.32,2.59-10.22a89.12,89.12,0,0,0,17.16-38.25c.57-2.88-.51-3.45-2.73-3.84-4.57-.79-9.14-1.63-13.71-2.45C288.85,393.46,286.71,392.4,287.74,389.37Zm2.5,9.28a37.92,37.92,0,0,0,3.85.94c9.05,2.14,9.12,2.17,6,11a84,84,0,0,1-12.49,23.6c0-12.09,0-22.83,0-33.58C287.6,398.66,288.2,397.91,290.24,398.65Zm34.11-11.18c-1.39,22.13-8.19,42.3-21.81,60a122.85,122.85,0,0,1-14.31,15.3c-1.75-4.72.49-7.34,3.12-10.11a99,99,0,0,0,27.54-61c.3-3.38-.76-3.82-3.61-4a107.2,107.2,0,0,1-24.06-4c-1.41-.43-3.52-.33-3.59-2.75-.05-1.86,0-3.52,2.64-2.71a111,111,0,0,0,31.45,4.72C325.43,382.91,324.47,385.56,324.35,387.47Z" transform="translate(-222.75 -326.72)"/></svg>