<svg id="Ebene_1" data-name="Ebene 1" xmlns="http://www.w3.org/2000/svg"
    viewBox="0 0 388.57 191.36">
    <defs>
        <style>.cls-1{fill:#fff;}.cls-2{fill:#2e2e2e;}.cls-3{fill:#2e2e2f;}</style>
    </defs>
    <title>ornament-box</title>
    <path class="cls-1"
        d="M356.86,325.85c7.19-.36,11.4,3.24,13.06,10H417a16.56,16.56,0,0,0,9.77,9.91c-.09.9-.18,1.85-.28,2.79-.75,7-1.59,13.93-2.25,20.9a348.27,348.27,0,0,0-1.58,46.35c.25,6.44.68,12.87,1.22,19.28.61,7.42,1.42,14.83,2.17,22.24.21,2.08.5,4.16.75,6.29a16.59,16.59,0,0,0-9.81,9.95H370c-.26.7-.47,1.36-.76,2a25.68,25.68,0,0,1-1.63,3.28,9.78,9.78,0,0,1-7.32,4.57c-1.09.13-2.18.21-3.41.34a9.46,9.46,0,0,0-.23,1.3,7.75,7.75,0,0,1-2.93,5.67,20.11,20.11,0,0,1-7.19,3.67,60.42,60.42,0,0,1-10.65,2.17,168.57,168.57,0,0,1-24.4,1c-5-.11-10-.43-15-.69-3.41-.17-6.82-.36-10.23-.6-3.84-.28-7.67-.64-11.51-1-2.53-.2-5.07-.39-7.6-.6l-11.51-1c-1.27-.1-2.53-.22-3.8-.27-3.2-.13-6.39-.27-9.59-.33-5.94-.1-10.59,2.55-14.38,6.93l-.24.28c-1.39-1.24-2.65-2.5-4-3.61a18,18,0,0,0-5.68-3,12.13,12.13,0,0,0-3.87-.6c-4,.05-8,.22-11.94.41-2.8.14-5.59.37-8.39.6-3.66.3-7.32.64-11,.95-2.53.21-5.07.42-7.6.61q-6.54.5-13.1,1c-1.7.12-3.4.23-5.11.31-8,.39-15.94.74-23.92.52A118,118,0,0,1,115.1,496a35.91,35.91,0,0,1-10.63-3.21,20,20,0,0,1-3.56-2.43,7.33,7.33,0,0,1-2.57-5.29c0-.35-.07-.7-.12-1a1.85,1.85,0,0,0-.2-.33c-3,0-6-.38-8.45-2.39s-3.54-4.72-4.52-7.69H48a16.75,16.75,0,0,0-9.78-10l.42-4c.79-7.71,1.64-15.42,2.37-23.14a317.82,317.82,0,0,0,1.47-37c-.15-6.48-.49-13-.93-19.43s-1.06-12.84-1.68-19.25c-.41-4.27-1-8.53-1.44-12.79-.08-.73-.14-1.47-.21-2.18A16.58,16.58,0,0,0,48,335.86H85c.36-.95.67-1.86,1-2.74,1.47-3.58,3.93-6.08,7.82-6.91a29.77,29.77,0,0,1,3-.37c.43,0,.86,0,1.35-.07.06-.41.15-.74.17-1.08a8.22,8.22,0,0,1,3.78-6.58,23.94,23.94,0,0,1,8.14-3.54,72.87,72.87,0,0,1,11.36-1.93,171,171,0,0,1,20.74-.71c5.34.13,10.68.45,16,.69,1.66.08,3.32.17,5,.29q6.89.49,13.75,1,5.51.42,11,.87l11.25.95c1.27.11,2.54.23,3.8.28,3.2.13,6.39.25,9.59.32,5.9.11,10.51-2.51,14.3-6.83l.48-.54a16.6,16.6,0,0,0,5.32,4.71,27,27,0,0,0,4.14,2,12,12,0,0,0,3.85.65c4.07-.05,8.14-.22,12.21-.42,2.8-.13,5.59-.37,8.38-.6,3.67-.29,7.33-.64,11-.95,2.44-.21,4.89-.4,7.33-.6,3.14-.24,6.28-.49,9.43-.72,1.48-.11,3-.21,4.46-.29,9-.48,18-1,27.06-.8a124.87,124.87,0,0,1,19.21,1.58,40.75,40.75,0,0,1,9.33,2.58,17.56,17.56,0,0,1,4.5,2.69,7.74,7.74,0,0,1,2.91,5.67A13.75,13.75,0,0,0,356.86,325.85Zm-2.5,2.82a8.27,8.27,0,0,0-1.56-4.13,11.92,11.92,0,0,0-3.75-3.24,27.69,27.69,0,0,0-7.46-2.81,89.66,89.66,0,0,0-18-2.06c-3.41-.12-6.84-.13-10.25,0-5.82.19-11.64.5-17.46.8-2.49.13-5,.33-7.47.55-4.31.39-8.62.82-12.94,1.22-3.13.29-6.27.56-9.41.87-4.14.4-8.27.87-12.41,1.21-3.66.31-7.34.51-11,.74a14.64,14.64,0,0,1-8.85-1.83,17.31,17.31,0,0,1-4.22-3.3,8.61,8.61,0,0,1-1.94-4.17c-.64-.24-.74.12-.83.55a8.55,8.55,0,0,1-3.19,5,19.51,19.51,0,0,1-6,3.37,3.12,3.12,0,0,1-.89.21c-1.62.09-3.24.28-4.85.21q-6.3-.29-12.59-.78c-4.4-.35-8.8-.82-13.2-1.21-5-.45-10-.91-15.05-1.3s-10.13-.82-15.2-1q-9.45-.39-18.92-.41a100.73,100.73,0,0,0-21.28,1.9,29.82,29.82,0,0,0-9,3.22c-2.76,1.62-4.81,3.79-5.32,7.11a2.76,2.76,0,0,1-.16.4c-6.13.26-9.94,3.55-11.87,9.35H52c-.52,4.55-5.49,9.14-9.53,9.55.05.68.09,1.37.16,2.05.75,6.88,1.59,13.75,2.25,20.64.89,9.2,1.53,18.43,1.71,27.68.16,8.11,0,16.22-.49,24.31q-.57,8.71-1.41,17.42c-.6,6.28-1.35,12.54-2,18.81-.08.77-.14,1.54-.21,2.31,4.59.47,9.22,5.61,9.5,9.5H89.35c1.94,5.84,5.74,9.16,11.92,9.44.6,4.34,3.51,6.66,7.17,8.24a34.9,34.9,0,0,0,5.09,1.69,79.88,79.88,0,0,0,18.49,2c5.21.09,10.42-.13,15.63-.24,1.76,0,3.5-.16,5.25-.29,3.19-.23,6.38-.48,9.56-.73q3.4-.27,6.81-.58c3.31-.32,6.61-.66,9.92-1l8.09-.85c2.92-.32,5.83-.67,8.74-1,3.18-.32,6.37-.59,9.55-.89A76.25,76.25,0,0,1,217,486.8a6.05,6.05,0,0,1,2.15.47,32,32,0,0,1,3.75,1.88,14.63,14.63,0,0,1,2.39,1.84,7.64,7.64,0,0,1,2.56,4.33c.08.43.15.92.81.65.7-2.41,1-3.05,2.11-4.3a17.68,17.68,0,0,1,7.88-4.78,2.32,2.32,0,0,1,.65-.09c1.44,0,2.89-.13,4.33-.07q4.66.21,9.31.56,5,.38,9.94.87c4.83.47,9.66,1,14.49,1.47s9.94.94,14.92,1.3c5.8.42,11.62.87,17.44,1a162.23,162.23,0,0,0,24.54-.68,58.13,58.13,0,0,0,9.51-1.86,20.29,20.29,0,0,0,7.24-3.58,8.67,8.67,0,0,0,3.29-5.51,2.56,2.56,0,0,1,.22-.58c6.16-.28,9.87-3.64,11.8-9.35H390l23.45,0c1.43-5.21,4.55-8.37,9.65-9.62a4,4,0,0,0,0-.48c-.35-3.05-.73-6.09-1-9.14-.69-6.71-1.43-13.41-2-20.13-.72-8.61-1.24-17.23-1.11-25.87.1-6.88.25-13.76.62-20.63.31-5.81.9-11.62,1.46-17.41.53-5.5,1.19-11,1.78-16.46.11-1,.2-2.05.29-2.92a12.54,12.54,0,0,1-9.63-9.62H366.4a14.61,14.61,0,0,0-4.39-6.76A13.17,13.17,0,0,0,354.36,328.67Z"
        transform="translate(-38.26 -308.98)"/>
    <path class="cls-2"
        d="M354.36,328.67a13.17,13.17,0,0,1,7.65,2.65,14.61,14.61,0,0,1,4.39,6.76h47.06a12.54,12.54,0,0,0,9.63,9.62c-.09.87-.18,1.9-.29,2.92-.59,5.48-1.25,11-1.78,16.46-.56,5.79-1.15,11.6-1.46,17.41-.37,6.87-.52,13.75-.62,20.63-.13,8.64.39,17.26,1.11,25.87.56,6.72,1.3,13.42,2,20.13.32,3.05.7,6.09,1,9.14a4,4,0,0,1,0,.48c-5.1,1.25-8.22,4.41-9.65,9.62l-23.45,0H366.31c-1.93,5.71-5.64,9.07-11.8,9.35a2.56,2.56,0,0,0-.22.58,8.67,8.67,0,0,1-3.29,5.51,20.29,20.29,0,0,1-7.24,3.58,58.13,58.13,0,0,1-9.51,1.86,162.23,162.23,0,0,1-24.54.68c-5.82-.16-11.64-.61-17.44-1-5-.36-9.95-.83-14.92-1.3s-9.66-1-14.49-1.47q-5-.5-9.94-.87-4.65-.35-9.31-.56c-1.44-.06-2.89,0-4.33.07a2.32,2.32,0,0,0-.65.09,17.68,17.68,0,0,0-7.88,4.78c-1.14,1.25-1.41,1.89-2.11,4.3-.66.27-.73-.22-.81-.65a7.64,7.64,0,0,0-2.56-4.33,14.63,14.63,0,0,0-2.39-1.84,32,32,0,0,0-3.75-1.88,6.05,6.05,0,0,0-2.15-.47,76.25,76.25,0,0,0-11.41.42c-3.18.3-6.37.57-9.55.89-2.91.29-5.82.64-8.74,1l-8.09.85c-3.31.34-6.61.68-9.92,1q-3.41.31-6.81.58c-3.18.25-6.37.5-9.56.73-1.75.13-3.49.25-5.25.29-5.21.11-10.42.33-15.63.24a79.88,79.88,0,0,1-18.49-2,34.9,34.9,0,0,1-5.09-1.69c-3.66-1.58-6.57-3.9-7.17-8.24-6.18-.28-10-3.6-11.92-9.44H52c-.28-3.89-4.91-9-9.5-9.5.07-.77.13-1.54.21-2.31.68-6.27,1.43-12.53,2-18.81q.82-8.7,1.41-17.42c.53-8.09.65-16.2.49-24.31-.18-9.25-.82-18.48-1.71-27.68-.66-6.89-1.5-13.76-2.25-20.64-.07-.68-.11-1.37-.16-2.05,4-.41,9-5,9.53-9.55h37.3c1.93-5.8,5.74-9.09,11.87-9.35a2.76,2.76,0,0,0,.16-.4c.51-3.32,2.56-5.49,5.32-7.11a29.82,29.82,0,0,1,9-3.22,100.73,100.73,0,0,1,21.28-1.9q9.47,0,18.92.41c5.07.21,10.14.64,15.2,1s10,.85,15.05,1.3c4.4.39,8.8.86,13.2,1.21q6.28.49,12.59.78c1.61.07,3.23-.12,4.85-.21a3.12,3.12,0,0,0,.89-.21,19.51,19.51,0,0,0,6-3.37,8.55,8.55,0,0,0,3.19-5c.09-.43.19-.79.83-.55a8.61,8.61,0,0,0,1.94,4.17,17.31,17.31,0,0,0,4.22,3.3,14.64,14.64,0,0,0,8.85,1.83c3.67-.23,7.35-.43,11-.74,4.14-.34,8.27-.81,12.41-1.21,3.14-.31,6.28-.58,9.41-.87,4.32-.4,8.63-.83,12.94-1.22,2.49-.22,5-.42,7.47-.55,5.82-.3,11.64-.61,17.46-.8,3.41-.12,6.84-.11,10.25,0a89.66,89.66,0,0,1,18,2.06,27.69,27.69,0,0,1,7.46,2.81,11.92,11.92,0,0,1,3.75,3.24A8.27,8.27,0,0,1,354.36,328.67ZM422.07,460a9.37,9.37,0,0,0,0-1.06c-.63-5.75-1.32-11.49-1.89-17.25s-1.12-11.34-1.44-17c-.37-6.52-.57-13.05-.68-19.58-.12-7.32.18-14.63.7-21.94.34-4.89.77-9.78,1.24-14.66.53-5.41,1.15-10.81,1.73-16.21.15-1.33.28-2.67.42-4-4.41-1.19-7.6-4.39-9.42-9.38h-47a14.43,14.43,0,0,0-4.3-7c-2.28-1.85-5-2.32-7.77-2.51-.09-.18-.16-.25-.16-.33a8.21,8.21,0,0,0-4.52-6.82,27.76,27.76,0,0,0-5-2.24c-5.32-1.75-10.87-2.26-16.41-2.62-7-.46-14-.24-21,0-1.93.06-3.85.17-5.78.3q-5.18.35-10.35.73-3.46.27-6.93.58c-3.49.32-7,.66-10.46,1l-6.27.6c-3.18.32-6.36.66-9.54,1-2.57.23-5.15.46-7.72.61-3.28.19-6.56.34-9.84.42a9.24,9.24,0,0,1-4-.8c-3.47-1.53-6.57-3.48-8.35-7-.11.11-.19.15-.23.23a15.08,15.08,0,0,1-13.39,7.6c-2.93,0-5.86-.15-8.79-.31-2.32-.12-4.63-.34-6.94-.54-3.71-.32-7.41-.66-11.12-1l-6.67-.59c-3.71-.33-7.41-.67-11.12-1-3.06-.23-6.12-.42-9.18-.59-4.5-.25-9-.6-13.51-.69a184.4,184.4,0,0,0-20.76.44,79.79,79.79,0,0,0-10.88,1.64,24.51,24.51,0,0,0-8.7,3.54,8.28,8.28,0,0,0-3.9,6.11,4.33,4.33,0,0,1-.18.73c-1.2.17-2.39.25-3.53.51a10.87,10.87,0,0,0-7.8,7c-.28.68-.55,1.37-.85,2.12h-37a14,14,0,0,1-9.43,9.42c.25,2,.53,4,.73,6,.84,8.63,1.75,17.26,2.44,25.91.49,6.06.76,12.16.93,18.24a318.17,318.17,0,0,1-1.56,37.81c-.64,7-1.49,13.94-2.24,20.91-.1.9-.18,1.81-.27,2.78a11.13,11.13,0,0,1,5.86,3.4,11.41,11.41,0,0,1,3.47,6H90c1.74,6,5.56,9.44,12,9.45a5.67,5.67,0,0,1,.2.82,8,8,0,0,0,3.73,5.9,18.68,18.68,0,0,0,5.19,2.49,65.43,65.43,0,0,0,17.07,2.61c7.54.35,15.07.11,22.6-.28,2.71-.13,5.42-.33,8.13-.55,3.79-.31,7.59-.66,11.38-1q3.14-.29,6.27-.61l9-1,8.35-.88c3.05-.31,6.09-.67,9.14-.94s6.29-.46,9.43-.7a15.92,15.92,0,0,1,6,.31c4,1.29,7.55,3.3,9.63,7.21.05.09.18.15.31.25a12,12,0,0,1,4.36-4.86,14.32,14.32,0,0,1,5.79-2.68,38.2,38.2,0,0,1,6.68-.19c3.11.11,6.2.41,9.3.65,2.27.18,4.54.39,6.8.61,3.23.31,6.45.65,9.67,1l9.15.87c3.4.32,6.8.66,10.2.93q4.58.38,9.17.62c5.12.26,10.24.57,15.36.68a127.73,127.73,0,0,0,20.59-1,46.86,46.86,0,0,0,9.57-2.16,15.64,15.64,0,0,0,6.26-3.73,7.36,7.36,0,0,0,2.14-4.54,5.43,5.43,0,0,1,.22-.86l.85-.06a11,11,0,0,0,10.19-6.85,17.05,17.05,0,0,0,.71-1.84.9.9,0,0,1,1.07-.72c.34,0,.7,0,1.05,0h45.14A14.07,14.07,0,0,1,422.07,460Z"
        transform="translate(-38.26 -308.98)"/>
    <path class="cls-3"
        d="M413.6,454.25a13,13,0,0,0-8.94,8.47H361.54c-.34,0-.68,0-1,0a.87.87,0,0,0-1,.65,12.32,12.32,0,0,1-.68,1.64c-1.89,3.92-5.17,5.94-9.73,6.15l-.81.05a5.51,5.51,0,0,0-.21.77,6.47,6.47,0,0,1-2.05,4.07,15.09,15.09,0,0,1-6,3.34,46.32,46.32,0,0,1-9.14,1.94,130.48,130.48,0,0,1-19.66.88c-4.9-.1-9.79-.38-14.68-.61-2.92-.15-5.84-.33-8.76-.56-3.25-.24-6.5-.55-9.74-.83l-8.74-.78-9.24-.87c-2.16-.2-4.32-.39-6.49-.55-3-.22-5.92-.48-8.89-.58a38.81,38.81,0,0,0-6.38.17,14,14,0,0,0-5.53,2.4,11.06,11.06,0,0,0-4.17,4.36c-.12-.09-.24-.14-.29-.23-2-3.5-5.39-5.3-9.2-6.46a16.44,16.44,0,0,0-5.74-.28c-3,.22-6,.39-9,.63s-5.82.56-8.73.85l-8,.78-8.6.86q-3,.3-6,.55c-3.62.31-7.24.62-10.87.9-2.58.19-5.17.37-7.76.49-7.19.35-14.39.57-21.59.25a66,66,0,0,1-16.31-2.34,18.42,18.42,0,0,1-5-2.23,7.16,7.16,0,0,1-3.57-5.29,4.49,4.49,0,0,0-.19-.74c-6.15,0-9.8-3.08-11.46-8.47H60.79a10.09,10.09,0,0,0-3.31-5.35,10.89,10.89,0,0,0-5.6-3.05c.09-.87.17-1.68.26-2.49.72-6.25,1.53-12.48,2.14-18.74a268.36,268.36,0,0,0,1.49-33.89c-.16-5.46-.42-10.92-.89-16.36-.65-7.75-1.53-15.48-2.33-23.22-.19-1.8-.46-3.58-.7-5.41a13.05,13.05,0,0,0,9-8.45H96.22c.29-.67.55-1.29.81-1.9a10.2,10.2,0,0,1,7.46-6.24c1.09-.23,2.22-.3,3.37-.46a3.36,3.36,0,0,0,.17-.66,7.42,7.42,0,0,1,3.73-5.47,24.37,24.37,0,0,1,8.31-3.17,78.74,78.74,0,0,1,10.39-1.47,187.5,187.5,0,0,1,19.83-.4c4.31.09,8.61.39,12.91.62,2.92.16,5.85.32,8.77.53,3.54.26,7.08.57,10.62.86l6.37.53,10.62.89c2.21.18,4.42.38,6.63.49,2.8.13,5.6.28,8.4.27a14.6,14.6,0,0,0,12.79-6.82,1.58,1.58,0,0,1,.22-.2c1.7,3.17,4.67,4.91,8,6.28a9.28,9.28,0,0,0,3.78.72c3.13-.07,6.27-.2,9.4-.37,2.46-.14,4.92-.34,7.37-.55,3-.27,6.08-.57,9.11-.85l6-.54,10-.89q3.31-.28,6.63-.52c3.3-.23,6.59-.45,9.89-.65q2.76-.18,5.52-.27c6.69-.22,13.39-.41,20.08,0A66.28,66.28,0,0,1,339,328.79a27.25,27.25,0,0,1,4.79,2c2.48,1.33,4.12,3.29,4.31,6.11a1.28,1.28,0,0,0,.16.3c2.62.17,5.24.58,7.42,2.24a12.9,12.9,0,0,1,4.11,6.26h44.85c1.73,4.48,4.78,7.35,9,8.41-.13,1.17-.26,2.37-.4,3.57-.56,4.84-1.15,9.68-1.65,14.52-.46,4.38-.87,8.77-1.2,13.15-.49,6.55-.78,13.11-.66,19.67.11,5.85.3,11.71.65,17.55.31,5.09.85,10.18,1.38,15.26s1.2,10.3,1.8,15.46A7.52,7.52,0,0,1,413.6,454.25Z"
        transform="translate(-38.26 -308.98)"/>
</svg>